<mxfile host="app.diagrams.net" agent="Mozilla/5.0 (Macintosh; Intel Mac OS X 10_15_7) AppleWebKit/537.36 (KHTML, like Gecko) Chrome/133.0.0.0 Safari/537.36" version="26.1.0">
  <diagram name="Page-1" id="ZzI0bSMoF7k67ayQ-rmi">
    <mxGraphModel dx="954" dy="560" grid="1" gridSize="10" guides="1" tooltips="1" connect="1" arrows="1" fold="1" page="1" pageScale="1" pageWidth="827" pageHeight="1169" math="0" shadow="0">
      <root>
        <mxCell id="0" />
        <mxCell id="1" parent="0" />
        <mxCell id="xXZLjdGy6UP3Q1XhfBic-1" value="Experiment-Result-Extractor" style="ellipse;whiteSpace=wrap;html=1;" vertex="1" parent="1">
          <mxGeometry x="259" y="50" width="310" height="80" as="geometry" />
        </mxCell>
        <mxCell id="xXZLjdGy6UP3Q1XhfBic-3" value="Input:&amp;nbsp;&lt;div&gt;paper_ids: list,&lt;/div&gt;&lt;div&gt;targets: list, # e.g.&amp;nbsp;&lt;span style=&quot;background-color: transparent;&quot;&gt;NLRP3,&amp;nbsp;&lt;/span&gt;&lt;span style=&quot;background-color: transparent; color: light-dark(rgb(0, 0, 0), rgb(255, 255, 255));&quot;&gt;WDTC1,&amp;nbsp;&lt;/span&gt;&lt;span style=&quot;background-color: transparent; color: light-dark(rgb(0, 0, 0), rgb(255, 255, 255));&quot;&gt;GRK2 etc.&lt;/span&gt;&lt;/div&gt;&lt;div&gt;desired_results_description: str, # e.g. body weight related results&lt;/div&gt;&lt;div&gt;output_format: dict,&lt;/div&gt;&lt;div&gt;parsed_papers_content: dict[list[dict]], # results of PDF Layout Analyzer&lt;/div&gt;&lt;div&gt;&lt;br&gt;&lt;/div&gt;&lt;div&gt;&lt;br&gt;&lt;/div&gt;&lt;div&gt;&lt;br&gt;&lt;/div&gt;" style="rounded=0;whiteSpace=wrap;html=1;align=left;verticalAlign=top;" vertex="1" parent="1">
          <mxGeometry x="220" y="170" width="400" height="110" as="geometry" />
        </mxCell>
        <mxCell id="xXZLjdGy6UP3Q1XhfBic-4" value="&lt;div&gt;&lt;span style=&quot;background-color: transparent; color: light-dark(rgb(0, 0, 0), rgb(255, 255, 255));&quot;&gt;For paper_id in paper_ids:&lt;/span&gt;&lt;/div&gt;" style="shape=hexagon;perimeter=hexagonPerimeter2;whiteSpace=wrap;html=1;fixedSize=1;align=center;" vertex="1" parent="1">
          <mxGeometry x="225" y="300" width="390" height="80" as="geometry" />
        </mxCell>
        <mxCell id="xXZLjdGy6UP3Q1XhfBic-5" value="Create structured representation of the paper" style="rounded=0;whiteSpace=wrap;html=1;align=center;verticalAlign=middle;" vertex="1" parent="1">
          <mxGeometry x="260" y="410" width="320" height="40" as="geometry" />
        </mxCell>
        <mxCell id="xXZLjdGy6UP3Q1XhfBic-7" value="For resource (image or table) in paper" style="shape=hexagon;perimeter=hexagonPerimeter2;whiteSpace=wrap;html=1;fixedSize=1;align=center;" vertex="1" parent="1">
          <mxGeometry x="225" y="480" width="390" height="80" as="geometry" />
        </mxCell>
        <mxCell id="xXZLjdGy6UP3Q1XhfBic-9" value="&lt;div&gt;&lt;b&gt;Filtering resource&lt;/b&gt;&lt;/div&gt;Is resource contains&lt;div&gt;desired results that related to target?&lt;/div&gt;" style="rhombus;whiteSpace=wrap;html=1;" vertex="1" parent="1">
          <mxGeometry x="274" y="580" width="280" height="160" as="geometry" />
        </mxCell>
        <mxCell id="xXZLjdGy6UP3Q1XhfBic-10" value="&lt;b&gt;Extract results by text&lt;/b&gt;&lt;div&gt;Input:&lt;/div&gt;&lt;div&gt;resource_description,&lt;/div&gt;&lt;div&gt;resource_content_text,&lt;/div&gt;&lt;div&gt;abstract_text,&lt;/div&gt;&lt;div&gt;methods_text,&lt;/div&gt;&lt;div&gt;results_text,&lt;/div&gt;&lt;div&gt;discussion_text,&lt;/div&gt;&lt;div&gt;Output:&lt;/div&gt;&lt;div&gt;extracted_results&lt;/div&gt;" style="rounded=0;whiteSpace=wrap;html=1;align=left;verticalAlign=top;" vertex="1" parent="1">
          <mxGeometry x="234" y="770" width="360" height="160" as="geometry" />
        </mxCell>
        <mxCell id="xXZLjdGy6UP3Q1XhfBic-11" value="For result in extracted_results that have no extracted effect size" style="shape=hexagon;perimeter=hexagonPerimeter2;whiteSpace=wrap;html=1;fixedSize=1;align=center;" vertex="1" parent="1">
          <mxGeometry x="219" y="980" width="390" height="80" as="geometry" />
        </mxCell>
        <mxCell id="xXZLjdGy6UP3Q1XhfBic-12" value="&lt;b&gt;Extract effect size by image and text&lt;/b&gt;&lt;div&gt;Input:&lt;/div&gt;&lt;div&gt;image_of_resource, # cropped image that contains figure or table&lt;/div&gt;&lt;div&gt;target,&lt;/div&gt;&lt;div&gt;variable_1,&lt;/div&gt;&lt;div&gt;variable_2,&lt;/div&gt;&lt;div&gt;target_related_outcome_or_observation,&lt;/div&gt;&lt;div&gt;&lt;div&gt;sample_group_1,&lt;/div&gt;&lt;div&gt;sample_group_2,&lt;/div&gt;&lt;/div&gt;&lt;div&gt;result_label # table or figure or subfigure label,&lt;/div&gt;&lt;div&gt;results_text,&lt;/div&gt;&lt;div&gt;discussion_text,&lt;/div&gt;&lt;div&gt;Output:&lt;/div&gt;&lt;div&gt;effect_size&lt;/div&gt;" style="rounded=0;whiteSpace=wrap;html=1;align=left;verticalAlign=top;" vertex="1" parent="1">
          <mxGeometry x="234" y="1110" width="360" height="210" as="geometry" />
        </mxCell>
      </root>
    </mxGraphModel>
  </diagram>
</mxfile>
